<?xml version="1.0" standalone="no"?>
<!DOCTYPE svg PUBLIC "-//W3C//DTD SVG 20010904//EN"
 "http://www.w3.org/TR/2001/REC-SVG-20010904/DTD/svg10.dtd">
<svg version="1.0" xmlns="http://www.w3.org/2000/svg"
 width="900.000000pt" height="867.000000pt" viewBox="0 0 900.000000 867.000000"
 preserveAspectRatio="xMidYMid meet">
<metadata>
Created by potrace 1.10, written by Peter Selinger 2001-2011
</metadata>
<g transform="translate(0.000000,867.000000) scale(0.100000,-0.100000)"
fill="#000000" stroke="none">
<path d="M2298 8649 c-10 -10 -28 -19 -40 -19 -13 -1 -34 -11 -49 -23 -46 -40
-59 -71 -59 -144 1 -60 4 -72 28 -99 28 -31 95 -85 122 -97 8 -4 31 -17 50
-28 19 -12 55 -32 80 -46 25 -13 59 -33 75 -44 17 -10 39 -23 50 -29 29 -15
56 -32 96 -62 20 -16 40 -28 44 -28 4 0 24 -13 45 -30 21 -16 41 -30 44 -30 6
0 197 -137 227 -163 8 -7 53 -42 100 -77 46 -35 89 -69 94 -75 6 -6 31 -27 56
-47 78 -62 184 -163 444 -423 285 -285 347 -350 400 -420 20 -27 41 -52 45
-55 13 -8 154 -222 178 -270 13 -25 27 -52 31 -60 5 -8 17 -33 26 -55 10 -22
24 -53 31 -68 8 -16 14 -38 14 -50 0 -12 7 -40 15 -62 37 -103 10 -185 -100
-304 -122 -133 -480 -494 -2020 -2042 -1561 -1568 -2013 -2028 -2130 -2164
-38 -44 -71 -82 -75 -85 -22 -19 -84 -112 -105 -159 -29 -64 -18 -283 16 -341
5 -8 12 -22 16 -30 25 -58 164 -211 475 -525 270 -272 450 -436 486 -444 9 -1
24 -9 32 -16 24 -20 68 -28 190 -32 77 -3 128 0 155 8 71 23 231 154 465 380
36 34 119 114 185 177 66 64 984 979 2040 2034 1173 1171 1928 1918 1939 1918
22 0 240 -217 282 -280 28 -43 29 -47 28 -171 -1 -100 -5 -131 -18 -150 -12
-18 -16 -48 -16 -134 0 -152 -6 -142 220 -380 84 -88 364 -364 416 -410 6 -5
38 -35 70 -66 78 -74 181 -149 206 -149 10 0 33 -7 49 -16 24 -12 57 -14 162
-11 141 4 206 20 249 61 13 12 46 39 73 61 70 54 1058 1040 1096 1093 17 23
44 57 60 75 29 31 60 89 74 135 3 12 13 22 21 22 11 0 14 24 14 130 0 104 -3
130 -14 130 -14 0 -26 21 -26 45 0 26 -69 130 -132 200 -208 231 -627 642
-727 714 -43 30 -47 31 -153 31 -82 0 -117 -4 -141 -17 -24 -12 -61 -16 -152
-17 -151 -1 -144 -5 -372 217 -83 80 -91 92 -74 125 56 109 73 184 69 302 -4
110 -14 147 -60 218 -15 24 -28 46 -28 50 0 4 -8 15 -17 23 -10 9 -47 49 -83
90 -209 237 -1179 1203 -1581 1575 -24 22 -57 49 -74 60 -16 10 -41 29 -56 42
-14 13 -36 29 -50 37 -31 17 -165 82 -204 99 -16 7 -47 21 -68 30 -21 9 -46
16 -55 16 -10 0 -23 5 -29 11 -6 6 -29 15 -50 19 -21 5 -53 13 -70 19 -18 6
-48 16 -65 22 -18 6 -51 14 -73 18 -22 4 -50 13 -62 19 -12 7 -36 12 -53 12
-17 0 -47 7 -67 15 -19 8 -52 15 -73 15 -21 0 -54 7 -73 15 -20 8 -56 15 -81
15 -25 0 -57 5 -73 11 -15 6 -67 15 -116 20 -48 5 -96 13 -106 19 -11 5 -46
10 -78 10 -32 0 -85 7 -116 15 -32 8 -93 15 -135 15 -42 0 -93 5 -112 10 -19
6 -105 15 -190 20 -85 5 -180 13 -210 19 -30 5 -143 12 -250 15 -157 5 -197 9
-206 21 -9 12 -44 15 -205 14 -178 -1 -195 -2 -211 -20z m1081 -428 c11 -6 62
-11 113 -11 51 -1 122 -7 158 -15 36 -8 93 -14 127 -15 34 0 88 -7 120 -15 31
-8 78 -15 104 -15 25 0 66 -7 89 -15 23 -8 62 -15 87 -15 24 0 60 -7 80 -15
19 -8 52 -15 73 -15 21 0 54 -7 73 -15 20 -8 50 -15 67 -15 17 0 40 -5 51 -11
11 -6 41 -14 67 -19 45 -8 60 -12 142 -40 19 -7 49 -15 65 -18 17 -2 39 -11
50 -18 11 -8 27 -14 36 -14 10 0 30 -6 46 -14 29 -14 87 -40 113 -50 8 -3 22
-10 30 -15 8 -5 22 -12 30 -15 54 -21 155 -107 410 -351 218 -208 1155 -1147
1220 -1222 36 -41 76 -87 89 -101 76 -86 91 -162 46 -237 -69 -115 -69 -115
-69 -217 -1 -78 3 -100 17 -115 9 -11 17 -24 17 -30 0 -19 180 -205 327 -338
75 -68 180 -145 196 -145 8 0 20 -7 27 -15 7 -8 27 -15 44 -15 17 0 49 -7 71
-15 54 -19 269 -20 327 -1 24 8 60 17 82 21 l39 6 281 -283 c330 -332 378
-389 378 -453 1 -65 -17 -87 -443 -514 -341 -342 -604 -596 -682 -659 -65 -52
-69 -54 -95 -41 -15 7 -34 16 -44 19 -29 9 -237 202 -456 423 l-213 215 7 39
c4 21 13 54 21 74 11 27 13 74 10 195 -4 157 -17 240 -48 294 -57 100 -321
382 -440 471 -93 69 -213 103 -267 75 -17 -9 -38 -16 -47 -16 -21 0 -130 -83
-235 -179 -47 -43 -107 -97 -135 -121 -27 -24 -52 -46 -55 -49 -15 -19 -90
-71 -102 -71 -27 0 -178 142 -610 575 -138 138 -261 264 -275 282 -23 30 -23
33 -9 60 15 28 41 59 115 138 48 52 161 201 161 213 0 5 7 15 15 22 8 7 15 21
15 32 0 10 8 30 17 45 26 40 26 353 -1 438 -28 91 -65 185 -87 225 -5 8 -15
29 -24 45 -59 121 -197 321 -321 464 -16 20 -40 49 -52 65 -40 53 -213 238
-341 366 -233 232 -483 452 -748 656 -99 77 -133 107 -133 117 0 13 251 2 279
-12z m986 -3293 c95 -95 299 -298 454 -451 155 -153 281 -285 281 -294 0 -18
-434 -457 -1790 -1811 -1504 -1503 -2004 -1992 -2038 -1994 -45 -3 -75 1 -81
10 -3 5 -44 42 -91 82 -109 93 -598 581 -667 665 -43 51 -53 71 -53 101 0 63
-25 37 1255 1324 1903 1913 2530 2540 2543 2540 7 0 91 -78 187 -172z"/>
</g>
</svg>
